<?xml version="1.0" encoding="utf-8"?>
<!-- Generator: Adobe Illustrator 16.0.0, SVG Export Plug-In . SVG Version: 6.00 Build 0)  -->
<!DOCTYPE svg PUBLIC "-//W3C//DTD SVG 1.1//EN" "http://www.w3.org/Graphics/SVG/1.1/DTD/svg11.dtd">
<svg version="1.1" id="Layer_1" xmlns="http://www.w3.org/2000/svg" xmlns:xlink="http://www.w3.org/1999/xlink" x="0px" y="0px"
	 width="387.764px" height="350.644px" viewBox="200.16 68.544 387.764 350.644"
	 enable-background="new 200.16 68.544 387.764 350.644" xml:space="preserve">
<path d="M489.344,68.544c-36.361,0-76.442,19.282-95.302,61.586c-18.595-41.629-57.653-60.606-93.081-60.606
	c-66.167,0-100.801,54.724-100.801,108.76c0,53.896,32.819,112.479,94.949,169.47c46.408,42.594,92.146,69.045,94.05,70.162
	c1.48,0.843,3.172,1.272,4.882,1.272c1.886,0,3.808-0.551,5.376-1.607c7.702-5.178,188.506-128.18,188.506-248.365
	C587.924,103.128,538.324,68.544,489.344,68.544"/>
</svg>
