<?xml version="1.0" encoding="utf-8"?>
<!-- Generator: Adobe Illustrator 16.0.0, SVG Export Plug-In . SVG Version: 6.00 Build 0)  -->
<!DOCTYPE svg PUBLIC "-//W3C//DTD SVG 1.1//EN" "http://www.w3.org/Graphics/SVG/1.1/DTD/svg11.dtd">
<svg version="1.1" id="Layer_1" xmlns="http://www.w3.org/2000/svg" xmlns:xlink="http://www.w3.org/1999/xlink" x="0px" y="0px"
	 width="792px" height="612px" viewBox="0 0 792 612" enable-background="new 0 0 792 612" xml:space="preserve">
<path d="M597.725,433.526L483.79,319.592c26.37-30.36,42.385-69.94,42.385-113.216c0-95.334-77.562-172.902-172.902-172.902
	s-172.897,77.572-172.897,172.907c0,95.335,77.557,172.897,172.897,172.897c43.271,0,82.851-16.015,113.205-42.385l113.945,113.939
	c2.389,2.39,5.522,3.584,8.655,3.584c3.129,0,6.263-1.194,8.646-3.584C602.509,446.055,602.509,438.305,597.725,433.526z
	 M204.855,206.376c0-81.841,66.581-148.422,148.417-148.422c81.842,0,148.423,66.585,148.423,148.422
	c0,81.837-66.581,148.418-148.423,148.418C271.436,354.794,204.855,288.213,204.855,206.376z"/>
</svg>
